<svg width="35" height="35" viewBox="0 0 35 35" fill="none" xmlns="http://www.w3.org/2000/svg">
<rect width="32" height="32" rx="4" fill="#489471"/>
<path fill-rule="evenodd" clip-rule="evenodd" d="M6.37037 4.20361V9.01843H13.5926V11.9073H10.7037V12.3888H7.33333V12.8703H5.88889V13.3518H4.92593V13.8332H3.96296V14.3147H3.48148V14.7962H3V15.2777H3.48148V15.7592H3.96296V16.2406H4.92593V16.7221H6.85185V17.2036H9.25926V17.6851H13.5926V27.7962H18.8889V17.6851H23.2222V17.2036H25.1481V16.7221H27.0741V16.2406H28.037V15.7592H28.5185V14.7962H29V14.3147H28.5185V13.8332H27.5556V13.3518H26.5926V12.8703H24.6667V12.3888H20.8148V11.9073H18.8889V9.01843H26.1111V4.20361H6.37037ZM20.8148 12.3888H18.8889V15.7592H13.5926V12.3888H11.1852V12.8703H7.81481V13.3518H6.37037V13.8332H5.40741V14.3147H4.44444V15.2777H5.40741V15.7592H6.85185V16.2406H8.77778V16.7221H24.1852V16.2406H26.1111V15.7592H27.5556V15.2777H28.037V14.7962H28.5185V14.3147H27.5556V13.8332H26.1111V13.3518H24.6667V12.8703H20.8148V12.3888Z" fill="white"/>
<path d="M33.6665 25.0001V23.6667H32.9998V22.3334H32.3332V21.6667H31.6665V21.0001H30.3332V20.3334H28.9998V19.6667H24.9998V20.3334H23.6665V21.0001H22.3332V21.6667H21.6665V22.3334H20.9998V23.6667H20.3332V25.0001H19.6665V29.0001H20.3332V30.3334H20.9998V31.6667H21.6665V32.3334H22.3332V33.0001H23.6665V33.6667H24.9998V34.3334H28.9998V33.6667H30.3332V33.0001H31.6665V32.3334H32.3332V31.6667H32.9998V30.3334H33.6665V29.0001H34.3332V25.0001H33.6665Z" fill="#0088CC"/>
<path d="M24.0141 23V23.1194H23.5634V23.2388H23.4507V23.3582H23.338V23.4776H23.2254V23.597H23.1127V23.7164H23V24.194H23.2254V24.6716H23.338V24.9104H23.4507V25.1493H23.5634V25.3881H23.4507V25.6269H23.5634V25.8657H23.6761V26.1045H23.7887V26.2239H24.1268V26.4627H24.2394V26.5821H24.3521V26.8209H24.4648V26.9403H24.5775V27.0597H24.9155V27.2985H25.0282V27.4179H25.1408V27.6567H25.2535V27.8955H25.3662V28.0149H25.1408V28.2537H25.2535V28.4925H25.3662V28.7313H25.4789V28.8507H25.5915V29.3284H25.7042V29.5672H25.8169V29.6866H25.9296V29.806H26.0423V29.9254H26.1549V30.1642H26.2676V30.2836H26.1549V30.403H26.2676V30.6418H26.3803V30.7612H26.493V30.8806H26.6056V31H27.169V30.7612H27.2817V30.6418H27.3944V30.403H27.507V30.2836H27.6197V30.0448H27.7324V29.806H28.0704V29.6866H28.1831V29.5672H28.2958V29.3284H28.4085V29.0896H28.5211V28.9701H28.2958V28.8507H28.4085V28.6119H28.5211V28.3731H28.6338V28.2537H28.7465V28.0149H28.9718V27.7761H29.0845V27.6567H29.1972V27.4179H29.3099V27.1791H29.4225V27.0597H29.3099V26.9403H29.4225V26.7015H29.5352V26.5821H29.6479V26.3433H29.7606V26.1045H29.8732V25.8657H29.9859V25.7463H30.0986V25.5075H30.2113V25.3881H30.5493V25.2687H30.662V25.0299H30.7746V24.791H30.8873V24.6716H30.5493V24.5522H30.662V24.0746H30.5493V23.7164H31V23.4776H30.8873V23.3582H30.7746V23.2388H30.5493V23.1194H30.2113V23H24.0141Z" fill="white"/>
<path d="M29.6479 24.0746H27.3944V25.3881H26.9437V26.1045H27.0563V26.2239H27.3944V27.0597H27.6197V28.0149H27.3944V28.7313H27.507V28.4925H27.6197V28.2537H27.7324V28.1343H27.8451V28.0149H27.9577V27.8955H28.0704V27.6567H28.1831V27.4179H28.2958V27.1791H28.4085V27.0597H28.2958V26.9403H28.4085V26.7015H28.5211V26.4627H28.6338V26.2239H28.7465V26.1045H28.8592V25.8657H28.9718V25.6269H29.0845V25.3881H29.5352V25.1493H29.6479V24.9104H29.7606V24.6716H29.6479V24.0746Z" fill="#0088CC"/>
<path d="M23.9014 24.0746H26.493V25.3881H26.0423V26.2239H26.493V27.0597H26.7183V28.0149H26.493V28.7313H26.3803V28.6119H26.2676V28.3731H26.1549V28.1343H26.0423V28.0149H26.2676V27.6567H26.1549V27.5373H26.0423V27.1791H25.9296V27.0597H25.4789V26.8209H25.3662V26.5821H25.2535V26.3433H25.1408V26.2239H24.8028V25.9851H24.6901V25.7463H24.5775V25.6269H24.4648V25.3881H24.6901V25.2687H24.5775V25.1493H24.4648V24.9104H24.3521V24.6716H24.2394V24.4328H24.1268V24.194H23.9014V24.0746Z" fill="#0088CC"/>
</svg>
